<?xml version="1.0" standalone="no"?>
<!DOCTYPE svg PUBLIC "-//W3C//DTD SVG 20010904//EN"
 "http://www.w3.org/TR/2001/REC-SVG-20010904/DTD/svg10.dtd">
<svg version="1.0" xmlns="http://www.w3.org/2000/svg"
 width="234.000000pt" height="279.000000pt" viewBox="0 0 234.000000 279.000000"
 preserveAspectRatio="xMidYMid meet">

<g transform="translate(0.000000,279.000000) scale(0.100000,-0.100000)"
fill="#000000" stroke="none">
<path d="M1033 2646 c-4 -8 -26 -16 -48 -19 -40 -4 -40 -4 8 -5 53 -2 65 -21
15 -23 l-33 -2 35 -6 c26 -4 36 -12 38 -28 4 -26 -22 -32 -32 -8 -6 18 -37 20
-53 4 -13 -13 -6 -39 9 -39 6 0 8 7 5 15 -4 8 -2 17 2 20 5 3 11 -2 15 -10 7
-19 60 -20 75 -1 14 17 5 86 -11 86 -6 0 -5 6 2 15 10 12 10 15 -3 15 -9 0
-20 -6 -24 -14z"/>
<path d="M1110 2639 c0 -5 21 -9 47 -9 25 0 44 2 42 4 -10 8 -89 13 -89 5z"/>
<path d="M1210 2621 c0 -6 -17 -8 -37 -6 l-38 5 32 -11 c32 -12 48 -33 37 -50
-9 -15 -22 -10 -29 11 -11 35 -75 20 -75 -17 0 -22 27 -14 34 10 l7 22 9 -21
c11 -28 32 -35 61 -20 18 9 24 20 26 49 1 26 -3 37 -13 37 -8 0 -14 -4 -14 -9z"/>
<path d="M1270 2610 c0 -8 29 -15 90 -23 21 -3 25 -43 5 -51 -11 -4 -18 0 -22
13 -8 33 -83 38 -83 6 0 -23 28 -25 34 -2 6 22 6 22 19 -3 15 -30 58 -38 81
-15 21 21 20 32 -4 52 -14 13 -16 19 -7 25 18 11 -16 10 -47 -2 -16 -6 -27 -6
-31 0 -8 13 -35 13 -35 0z"/>
<path d="M1494 2592 c3 -5 23 -14 45 -22 23 -7 41 -17 41 -22 0 -5 -9 -4 -19
2 -11 5 -26 10 -33 10 -7 -1 0 -8 15 -16 20 -11 27 -22 25 -36 -4 -27 -28 -36
-28 -11 0 40 -46 57 -71 27 -10 -13 -10 -17 2 -24 10 -7 17 -3 23 13 9 21 10
21 14 -5 6 -44 75 -52 88 -11 3 10 10 26 15 35 5 11 5 19 -2 24 -8 4 -7 10 2
16 10 7 5 8 -16 5 -16 -3 -41 1 -55 8 -28 16 -54 19 -46 7z"/>
<path d="M744 2549 c-10 -11 -32 -27 -49 -34 -40 -18 -7 -19 36 -1 40 16 59
11 59 -14 0 -26 -15 -33 -40 -18 -15 10 -25 10 -38 2 -23 -15 -28 -44 -7 -44
12 0 15 6 10 20 -6 20 9 28 20 10 9 -15 51 -12 65 5 7 9 20 13 27 10 8 -2 23
0 34 5 36 20 17 71 -25 69 -20 0 -20 -1 2 -9 12 -6 22 -18 22 -30 0 -26 -22
-26 -45 0 -10 11 -26 20 -36 20 -12 0 -16 5 -13 15 8 21 0 19 -22 -6z"/>
<path d="M1120 2521 c0 -13 19 -17 75 -18 28 -1 37 1 20 3 -16 3 -37 8 -45 11
-28 11 -50 13 -50 4z"/>
<path d="M590 2499 c-7 -11 -27 -27 -46 -35 -19 -8 -34 -17 -34 -19 0 -3 17 2
38 11 61 26 62 26 62 20 0 -3 -12 -12 -27 -21 l-28 -15 36 6 c29 4 38 2 43
-12 8 -20 -8 -42 -18 -25 -4 6 -15 11 -25 11 -22 0 -55 -35 -46 -49 8 -14 45
-14 45 -1 0 6 -4 10 -10 10 -5 0 -10 7 -10 17 0 15 2 14 20 -2 18 -17 21 -17
45 -1 14 9 25 24 25 34 0 28 -23 72 -38 72 -7 0 -10 5 -7 10 3 6 2 10 -4 10
-6 0 -15 -9 -21 -21z"/>
<path d="M1640 2511 c0 -5 17 -16 39 -24 53 -22 71 -67 27 -67 -19 0 -25 6
-28 28 -2 20 -9 28 -27 30 -31 5 -50 -13 -32 -30 10 -11 15 -9 24 7 11 19 12
18 17 -10 4 -22 13 -32 35 -40 16 -5 38 -18 47 -27 21 -21 39 -23 56 -6 17 17
15 55 -2 61 -11 4 -14 -1 -13 -21 1 -18 -4 -27 -15 -30 -15 -3 -18 4 -18 35 0
22 -5 44 -12 51 -9 9 -8 12 8 12 16 0 17 2 4 10 -8 5 -30 10 -47 10 -18 0 -33
5 -33 10 0 6 -7 10 -15 10 -8 0 -15 -4 -15 -9z"/>
<path d="M270 2475 c0 -8 -5 -15 -11 -15 -5 0 -7 5 -4 11 5 7 -3 9 -21 7 -15
-2 -29 -9 -32 -16 -2 -7 0 -12 5 -11 4 1 20 1 36 0 32 -1 34 -13 11 -91 -25
-88 -33 -153 -21 -175 9 -18 9 -19 -6 -6 -10 7 -17 22 -17 32 0 11 -9 27 -20
36 -11 10 -20 21 -20 25 0 5 9 8 20 8 11 0 20 7 20 15 0 22 -46 19 -69 -4 -11
-11 -22 -17 -25 -13 -9 9 -7 -8 4 -28 5 -10 23 -21 40 -25 20 -4 36 -17 46
-36 19 -38 53 -53 99 -45 43 8 64 41 46 75 -7 11 -18 21 -26 21 -8 0 -15 5
-15 10 0 6 18 10 39 10 26 0 41 5 45 16 13 34 7 44 -29 44 -19 0 -35 5 -35 10
0 6 18 10 39 10 22 0 46 3 55 6 21 8 21 48 0 65 -14 11 -13 14 10 26 26 14 35
33 16 33 -5 0 -10 -4 -10 -9 0 -5 -11 -12 -25 -15 -28 -7 -32 -27 -10 -46 26
-22 11 -35 -41 -35 l-50 0 10 37 c9 33 7 40 -14 63 -27 28 -40 32 -40 10z m23
-45 c3 -11 1 -18 -4 -14 -5 3 -9 12 -9 20 0 20 7 17 13 -6z m37 -139 c3 -2 -8
-1 -25 3 -36 9 -39 11 -30 26 5 8 13 6 28 -7 12 -10 24 -20 27 -22z m-30 -35
c0 -9 -8 -12 -25 -8 -14 2 -25 8 -25 13 0 5 11 9 25 9 14 0 25 -6 25 -14z m8
-48 c19 -19 14 -38 -11 -38 -25 0 -47 17 -47 37 0 16 42 17 58 1z"/>
<path d="M2082 2483 c-13 -3 -19 -9 -16 -15 5 -7 2 -9 -8 -5 -9 3 -26 -1 -38
-10 -22 -16 -24 -42 -5 -88 7 -17 6 -18 -6 -8 -9 8 -29 10 -51 7 -42 -7 -57 9
-34 35 23 26 20 35 -19 53 -19 8 -35 12 -35 7 0 -5 11 -14 24 -21 l25 -11 -21
-28 c-30 -41 -12 -59 59 -59 34 0 52 -4 48 -10 -3 -5 -12 -10 -20 -10 -8 0
-25 -4 -40 -10 -23 -9 -24 -12 -14 -31 10 -20 16 -21 80 -15 38 4 69 4 69 -1
0 -4 -21 -15 -46 -23 -80 -26 -86 -75 -11 -94 47 -12 85 5 100 44 7 17 19 30
29 30 9 0 30 11 45 24 22 20 26 28 18 42 -6 9 -24 18 -39 20 -53 5 -59 11 -53
50 3 19 2 47 -4 61 -7 18 -6 28 1 33 11 7 3 41 -9 39 -3 -1 -16 -4 -29 -6z
m-2 -75 c0 -32 3 -39 10 -28 8 12 10 11 8 -5 -1 -11 3 -46 11 -79 9 -41 10
-65 3 -80 -10 -20 -11 -20 -13 7 -4 65 -18 125 -30 133 -12 7 -11 94 1 94 6 0
10 -19 10 -42z m-37 17 c-3 -9 -8 -14 -10 -11 -3 3 -2 9 2 15 9 16 15 13 8 -4z
m13 -124 c-8 -13 -36 -15 -36 -3 0 4 5 13 12 20 14 14 34 0 24 -17z m102 -39
c2 -7 -3 -12 -12 -12 -9 0 -16 7 -16 16 0 17 22 14 28 -4z m-78 -62 c0 -25
-30 -41 -53 -29 -35 20 -18 47 31 48 15 1 22 -5 22 -19z"/>
<path d="M1025 2463 c-290 -42 -578 -228 -747 -484 -207 -311 -235 -736 -70
-1064 139 -278 402 -496 690 -572 84 -23 118 -26 262 -27 182 -1 264 12 397
65 247 98 471 315 586 569 109 241 121 560 32 820 -47 137 -120 253 -234 373
-222 231 -439 325 -748 325 -76 0 -151 -3 -168 -5z m301 -108 c214 -37 370
-120 529 -279 135 -136 223 -301 260 -485 37 -183 3 -447 -80 -628 -116 -251
-363 -457 -630 -524 -133 -34 -322 -32 -460 5 -204 54 -390 171 -513 323 -78
96 -162 265 -193 388 -31 120 -34 359 -6 477 60 254 206 450 439 588 226 133
424 174 654 135z"/>
<path d="M1008 2305 c-199 -38 -355 -128 -514 -298 -127 -136 -196 -276 -229
-461 -53 -308 35 -584 260 -812 128 -131 270 -211 442 -250 113 -27 320 -24
428 5 165 44 295 122 421 252 130 135 196 250 240 416 43 163 35 392 -18 548
-97 282 -340 514 -617 587 -101 26 -307 33 -413 13z m377 -100 c146 -40 317
-150 415 -266 70 -83 142 -220 171 -324 32 -112 32 -293 1 -418 -43 -172 -109
-290 -228 -411 -102 -101 -229 -176 -364 -213 -90 -25 -309 -24 -400 1 -314
86 -537 312 -610 619 -25 105 -27 306 -4 410 32 143 121 296 229 395 103 95
279 188 410 218 79 18 298 12 380 -11z"/>
<path d="M992 2151 c-212 -54 -422 -224 -517 -418 -55 -113 -76 -208 -77 -343
-1 -144 17 -224 79 -350 41 -82 61 -109 148 -195 112 -112 188 -161 310 -202
71 -24 96 -27 225 -27 110 -1 161 3 210 17 202 56 391 214 489 410 54 108 71
178 78 313 6 124 -5 211 -42 316 -70 201 -262 393 -462 463 -68 24 -97 28
-223 31 -117 3 -159 0 -218 -15z m393 -85 c261 -88 443 -313 478 -589 25 -200
-53 -436 -192 -580 -247 -258 -616 -287 -917 -71 -119 84 -223 244 -260 399
-22 92 -22 268 0 355 36 142 126 279 241 365 80 60 207 122 286 140 100 23
264 14 364 -19z"/>
<path d="M1115 2039 c-178 -16 -330 -100 -450 -248 -100 -124 -140 -244 -139
-416 0 -93 5 -122 27 -188 75 -216 260 -385 473 -433 99 -22 251 -15 346 15
143 46 292 176 367 321 52 101 71 183 71 311 0 195 -53 324 -189 460 -147 145
-292 196 -506 178z m190 -70 c195 -42 377 -222 430 -425 34 -130 9 -321 -57
-447 -47 -89 -159 -197 -250 -241 -92 -44 -142 -55 -243 -56 -160 0 -297 55
-414 165 -79 75 -141 182 -166 286 -17 74 -19 203 -5 280 26 137 132 284 261
360 154 92 277 113 444 78z"/>
<path d="M1075 1930 c-122 -25 -237 -95 -322 -198 -89 -106 -123 -202 -123
-348 0 -160 53 -279 178 -397 183 -173 468 -191 670 -43 192 142 272 367 212
601 -25 99 -57 152 -139 238 -124 129 -298 182 -476 147z m196 -51 c266 -57
435 -323 375 -592 -24 -106 -66 -185 -137 -255 -152 -150 -354 -181 -549 -85
-292 143 -373 541 -158 778 53 58 169 128 248 149 67 18 151 20 221 5z"/>
<path d="M1083 1825 c-85 -19 -156 -59 -225 -127 -178 -173 -173 -460 12 -631
32 -30 85 -68 117 -84 54 -26 66 -28 178 -28 117 0 123 1 189 34 196 96 296
314 241 524 -21 80 -46 125 -105 191 -103 111 -253 157 -407 121z m249 -63
c114 -54 192 -147 224 -264 75 -282 -170 -564 -443 -508 -264 54 -407 314
-312 565 38 101 162 205 282 236 18 4 67 7 109 5 61 -3 92 -11 140 -34z"/>
<path d="M1097 1740 c-104 -26 -208 -114 -253 -213 -22 -51 -27 -76 -27 -137
0 -43 8 -94 17 -119 35 -95 120 -179 218 -216 74 -28 206 -18 276 20 63 34
130 105 163 172 20 41 24 63 24 148 0 82 -4 109 -22 148 -31 67 -114 150 -174
177 -58 24 -165 34 -222 20z m196 -48 c66 -29 141 -103 167 -164 53 -124 29
-268 -61 -363 -62 -66 -131 -97 -214 -98 -127 -1 -237 64 -293 174 -97 190
-18 389 183 462 63 22 153 18 218 -11z"/>
<path d="M1115 1661 c-128 -32 -215 -140 -215 -271 0 -191 179 -317 363 -254
132 45 209 213 162 355 -42 125 -180 201 -310 170z m161 -42 c50 -24 100 -77
121 -128 9 -20 15 -64 15 -98 1 -234 -268 -338 -425 -164 -35 39 -67 119 -67
168 0 87 61 182 142 222 58 29 156 29 214 0z"/>
<path d="M1095 1571 c-141 -65 -160 -255 -33 -339 35 -23 52 -27 109 -27 60 0
71 3 106 31 53 43 83 99 83 156 0 62 -14 95 -58 141 -56 58 -133 72 -207 38z
m160 -24 c116 -66 112 -252 -7 -313 -48 -25 -136 -15 -182 20 -105 80 -93 235
22 296 50 26 117 25 167 -3z"/>
<path d="M1104 1511 c-51 -31 -74 -68 -74 -118 0 -59 25 -99 78 -124 120 -59
240 60 188 186 -29 68 -126 96 -192 56z m106 -16 c59 -30 79 -119 39 -169 -29
-36 -59 -47 -102 -35 -74 20 -111 91 -81 155 28 58 87 78 144 49z"/>
<path d="M1148 1419 c-24 -13 -23 -36 1 -49 23 -12 56 14 47 37 -3 8 -6 17 -6
19 0 7 -25 4 -42 -7z"/>
<path d="M235 2428 c-2 -7 -5 -26 -8 -43 -2 -16 -8 -39 -12 -50 l-7 -20 14 20
c8 11 18 39 21 63 5 40 1 56 -8 30z"/>
<path d="M207 2394 c-4 -4 -7 -17 -7 -28 1 -19 1 -20 11 -3 11 19 8 43 -4 31z"/>
<path d="M587 366 c-15 -11 -15 -15 -3 -25 15 -12 28 -2 32 27 3 15 -6 15 -29
-2z"/>
<path d="M1729 367 c-13 -10 -14 -14 -3 -25 14 -12 26 -2 30 26 3 15 -6 15
-27 -1z"/>
<path d="M1645 324 c-16 -12 -17 -16 -6 -23 20 -13 40 -3 38 20 -2 23 -6 23
-32 3z"/>
<path d="M661 316 c-16 -19 3 -31 26 -17 14 8 15 10 3 11 -13 0 -13 1 0 10 13
8 13 10 -1 10 -9 0 -22 -6 -28 -14z"/>
<path d="M1429 304 c-10 -13 -10 -17 2 -25 10 -8 8 -9 -8 -4 -15 4 -23 2 -23
-5 0 -8 11 -11 31 -8 l30 5 -27 -22 c-18 -15 -25 -27 -21 -38 9 -23 39 -21 68
2 19 16 22 22 12 32 -7 7 -13 21 -13 31 0 10 -7 18 -16 18 -10 0 -14 6 -10 15
7 20 -8 19 -25 -1z m36 -82 c0 -18 -20 -15 -23 4 -3 10 1 15 10 12 7 -3 13
-10 13 -16z"/>
<path d="M745 284 c-16 -12 -17 -16 -6 -23 20 -13 37 -4 38 19 2 24 -5 25 -32
4z"/>
<path d="M832 289 c2 -7 20 -17 39 -22 42 -10 64 -30 56 -51 -9 -22 -34 -20
-40 3 -7 30 -40 43 -63 26 -19 -15 -19 -15 0 -30 19 -14 83 -27 146 -29 31 -1
35 2 38 26 2 15 11 29 20 31 9 3 0 5 -22 6 -33 1 -37 -1 -26 -14 13 -16 7 -45
-10 -45 -5 0 -10 10 -10 23 0 12 -9 28 -21 35 -16 10 -18 16 -9 27 10 12 6 13
-23 8 -19 -3 -44 0 -57 7 -18 10 -21 9 -18 -1z m33 -59 c3 -5 -1 -10 -9 -10
-9 0 -16 5 -16 10 0 6 4 10 9 10 6 0 13 -4 16 -10z"/>
<path d="M1565 284 c-16 -12 -17 -16 -6 -23 20 -13 37 -4 38 19 2 24 -5 25
-32 4z"/>
<path d="M1254 256 c-11 -8 -31 -16 -44 -18 -17 -2 -25 -9 -23 -21 0 -12 -4
-17 -13 -13 -20 8 -31 -24 -13 -35 19 -12 76 -11 100 1 21 12 25 40 7 58 -9 9
-8 15 8 27 24 18 5 20 -22 1z m-29 -46 c-5 -15 -2 -20 12 -21 15 0 15 -2 -3
-11 -15 -7 -28 -7 -40 1 -16 9 -16 10 -3 11 9 0 19 9 22 20 3 11 8 20 12 20 3
0 3 -9 0 -20z"/>
<path d="M1393 238 c-25 -12 -31 -28 -10 -28 7 0 18 9 25 20 7 11 11 20 10 19
-2 0 -13 -5 -25 -11z"/>
<path d="M1065 232 c-27 -6 -46 -22 -39 -33 9 -15 64 -10 71 7 7 20 -7 32 -32
26z m5 -22 c0 -5 -4 -10 -10 -10 -5 0 -10 5 -10 10 0 6 5 10 10 10 6 0 10 -4
10 -10z"/>
<path d="M1497 203 c-9 -9 -36 -20 -59 -24 l-43 -8 49 3 c43 3 88 27 75 41 -3
2 -13 -3 -22 -12z"/>
<path d="M1321 182 c18 -29 4 -55 -26 -48 -14 4 -25 2 -25 -4 0 -15 56 -12 70
4 16 21 9 60 -13 64 -16 3 -17 1 -6 -16z"/>
<path d="M1300 150 c0 -5 5 -10 10 -10 6 0 10 5 10 10 0 6 -4 10 -10 10 -5 0
-10 -4 -10 -10z"/>
</g>
</svg>
